<?xml version="1.0" standalone="no"?>
<svg xmlns="http://www.w3.org/2000/svg" width="349.07836702886914" height="166.44164827886914" viewBox="0 0 349.07836702886914 166.44164827886914"><g fill="#FFFFFF" color="#FFFFFF" transform="translate(0 0) scale(0.6657666)"><g transform="translate(44.962, -0.537)"><svg width="250.0" height="250.0" x="-44.962" y="0.537" viewBox="-44.962 0.537 250 250"><path d="M126.795,249.872l-5.068-6.189l26.459-21.67l3.933-0.654c2.383,0.891,4.517,0.809,6.008-0.227  c1.556-1.08,2.412-3.164,2.412-5.869v-145c0-6.626-5.137-14.141-11.217-16.408l-0.146-0.059L39.823,8.012  c-8.66-0.255-17.459,3.097-23.702,9.031C10.884,22.02,8,28.378,8,34.947v4H0v-4c0-8.783,3.768-17.201,10.609-23.703  C18.576,3.673,29.911-0.513,40.907,0.05l1.342,0.305l109.947,46.033c9.17,3.467,16.342,13.936,16.342,23.875v145  c0,5.326-2.132,9.859-5.85,12.441c-3.078,2.135-7.019,2.771-11.074,1.84L126.795,249.872z"></path><path d="M1.038,38.491v145c0,8.08,6.053,16.912,13.493,19.688l105.042,46.072c1.457,0.543,2.91,0.824,4.293,0.824  c5.277,0,8.823-4.104,8.823-10.209v-145c0-8.08-6.053-16.912-13.492-19.688l-9.267-4.064c-1.756,1.523-4.893,5.444-4.893,14.093v56  l-18-25.25l-13.25,11.25c0,0-0.169-34.875-0.044-50.25c-0.037-10.146,1.992-16.831,5.298-19.391L14.155,29.104  c-1.457-0.543-2.91-0.823-4.293-0.823C4.584,28.281,1.038,32.384,1.038,38.491z"></path><path d="M4.475,29.498C2.76,30.81,1.495,32.787,0.91,35.272C1.715,33.491,3.003,31.483,4.475,29.498z"></path></svg></g></g><path fill="#FFFFFF" fill-rule="nonzero" d="M11.02 28.67L0 28.67L0 27.79L3.01 27.60L3.01 1.88L0 1.68L0 0.80L11.02 0.80L11.02 1.68L8.01 1.88L8.01 13.79L18.52 13.63L18.52 1.88L15.51 1.68L15.51 0.80L26.52 0.80L26.52 1.68L23.52 1.88L23.52 27.60L26.52 27.79L26.52 28.67L15.51 28.67L15.51 27.79L18.52 27.60L18.52 14.96L8.01 14.96L8.01 27.60L11.02 27.79L11.02 28.67ZM33.95 28.67L27.83 28.67L27.83 27.79L30.20 27.60L39.43 0L40.31 0L49.86 27.60L52.44 27.79L52.44 28.67L41.99 28.67L41.99 27.79L44.63 27.60L42.32 20.59L33.57 20.59L31.31 27.60L33.95 27.79L33.95 28.67ZM37.91 7.27L33.93 19.41L41.89 19.26L37.99 7.27L37.91 7.27ZM60.63 28.67L53.54 28.67L53.54 27.79L56.54 27.60L56.54 1.88L53.54 1.68L53.54 0.80L61.89 0.80L70.04 21.58L70.08 21.58L77.73 0.80L85.74 0.80L85.74 1.68L82.73 1.88L82.73 27.60L85.74 27.79L85.74 28.67L74.73 28.67L74.73 27.79L77.73 27.60L77.77 3.71L77.73 3.71L68.46 29.06L67.73 29.06L57.42 2.79L57.38 2.79L57.68 27.60L60.63 27.79L60.63 28.67ZM93.16 28.67L87.05 28.67L87.05 27.79L89.41 27.60L98.65 0L99.53 0L109.08 27.60L111.66 27.79L111.66 28.67L101.21 28.67L101.21 27.79L103.85 27.60L101.54 20.59L92.79 20.59L90.53 27.60L93.16 27.79L93.16 28.67ZM97.13 7.27L93.14 19.41L101.11 19.26L97.21 7.27L97.13 7.27ZM133.20 28.67L112.75 28.67L112.75 27.79L115.76 27.60L115.76 1.88L112.75 1.68L112.75 0.80L123.77 0.80L123.77 1.68L120.76 1.88L120.76 27.40Q123.95 27.62 125.12 27.62L125.12 27.62Q126.19 27.62 127.00 27.56Q127.81 27.50 128.49 27.30Q129.16 27.11 129.62 26.89Q130.08 26.68 130.49 26.22Q130.90 25.76 131.15 25.32Q131.41 24.88 131.82 23.60Q132.23 22.32 132.54 20.70L132.54 20.70L133.20 20.70L133.20 28.67ZM155.98 28.67L135.53 28.67L135.53 27.79L138.54 27.60L138.54 1.88L135.53 1.68L135.53 0.80L146.54 0.80L146.54 1.68L143.54 1.88L143.54 27.40Q146.72 27.62 147.89 27.62L147.89 27.62Q148.96 27.62 149.78 27.56Q150.59 27.50 151.26 27.30Q151.93 27.11 152.39 26.89Q152.85 26.68 153.26 26.22Q153.67 25.76 153.93 25.32Q154.18 24.88 154.59 23.60Q155 22.32 155.31 20.70L155.31 20.70L155.98 20.70L155.98 28.67Z" transform="translate(181.442 0) scale(1.075)"></path><path fill="#FFFFFF" fill-rule="nonzero" d="M11.02 28.67L0 28.67L0 27.79L3.01 27.60L3.01 1.88L0 1.68L0 0.80L11.02 0.80L11.02 1.68L8.01 1.88L8.01 13.79L18.52 13.63L18.52 1.88L15.51 1.68L15.51 0.80L26.52 0.80L26.52 1.68L23.52 1.88L23.52 27.60L26.52 27.79L26.52 28.67L15.51 28.67L15.51 27.79L18.52 27.60L18.52 14.96L8.01 14.96L8.01 27.60L11.02 27.79L11.02 28.67ZM33.95 28.67L27.83 28.67L27.83 27.79L30.20 27.60L39.43 0L40.31 0L49.86 27.60L52.44 27.79L52.44 28.67L41.99 28.67L41.99 27.79L44.63 27.60L42.32 20.59L33.57 20.59L31.31 27.60L33.95 27.79L33.95 28.67ZM37.91 7.27L33.93 19.41L41.89 19.26L37.99 7.27L37.91 7.27ZM73.98 28.67L53.54 28.67L53.54 27.79L56.54 27.60L56.54 1.88L53.54 1.68L53.54 0.80L64.55 0.80L64.55 1.68L61.54 1.88L61.54 27.40Q64.73 27.62 65.90 27.62L65.90 27.62Q66.97 27.62 67.78 27.56Q68.59 27.50 69.27 27.30Q69.94 27.11 70.40 26.89Q70.86 26.68 71.27 26.22Q71.68 25.76 71.93 25.32Q72.19 24.88 72.60 23.60Q73.01 22.32 73.32 20.70L73.32 20.70L73.98 20.70L73.98 28.67ZM96.76 28.67L76.31 28.67L76.31 27.79L79.32 27.60L79.32 1.88L76.31 1.68L76.31 0.80L87.32 0.80L87.32 1.68L84.32 1.88L84.32 27.40Q87.50 27.62 88.67 27.62L88.67 27.62Q89.75 27.62 90.56 27.56Q91.37 27.50 92.04 27.30Q92.71 27.11 93.17 26.89Q93.63 26.68 94.04 26.22Q94.45 25.76 94.71 25.32Q94.96 24.88 95.37 23.60Q95.78 22.32 96.09 20.70L96.09 20.70L96.76 20.70L96.76 28.67Z" transform="translate(181.442 39.236) scale(1.733)"></path><path fill="#FFFFFF" fill-rule="nonzero" d="M11.02 28.67L0 28.67L0 27.79L3.01 27.60L3.01 1.88L0 1.68L0 0.80L10.61 0.80Q12.75 0.80 14.58 1.26Q16.41 1.72 17.87 2.65Q19.34 3.57 20.17 5.13Q21.00 6.68 21.00 8.71L21.00 8.71Q21.00 10.59 20.36 12.09Q19.73 13.59 18.65 14.61Q17.58 15.63 16.06 16.30Q14.55 16.97 12.86 17.28Q11.17 17.58 9.28 17.58L9.28 17.58Q8.87 17.58 8.01 17.54L8.01 17.54L8.01 27.60L11.02 27.79L11.02 28.67ZM8.01 2.15L8.01 16.43Q8.69 16.48 9.39 16.48L9.39 16.48Q15.80 16.48 15.80 8.67L15.80 8.67Q15.80 6.78 15.37 5.44Q14.94 4.10 14.13 3.37Q13.32 2.64 12.33 2.31Q11.35 1.99 10.08 1.99L10.08 1.99Q9.12 1.99 8.01 2.15L8.01 2.15ZM34.38 28.67L23.36 28.67L23.36 27.79L26.37 27.60L26.37 1.88L23.36 1.68L23.36 0.80L33.77 0.80Q35.94 0.80 37.69 1.17Q39.43 1.54 40.81 2.34Q42.19 3.14 42.94 4.50Q43.69 5.86 43.69 7.71L43.69 7.71Q43.69 11.05 41.45 12.92Q39.20 14.79 35.37 15.33L35.37 15.33L35.37 15.37Q37.01 15.39 38.21 15.90Q39.41 16.41 40.13 17.20Q40.84 17.99 41.48 19.24L41.48 19.24Q41.91 20.10 42.71 21.87Q43.50 23.63 44.28 25L44.28 25Q44.90 26.11 45.59 26.72Q46.27 27.32 46.74 27.46Q47.21 27.60 47.81 27.60L47.81 27.60L47.81 28.67L44.57 28.67Q43.09 28.67 42.23 28.49Q41.37 28.30 40.52 27.60Q39.67 26.89 39.00 25.65Q38.34 24.41 36.74 20.47L36.74 20.47Q36.50 19.88 36.06 18.96Q35.63 18.03 35.30 17.55Q34.98 17.07 34.54 16.54Q34.10 16.02 33.64 15.79Q33.18 15.57 32.68 15.57L32.68 15.57Q31.82 15.57 31.37 15.59L31.37 15.59L31.37 27.60L34.38 27.79L34.38 28.67ZM31.37 2.05L31.37 14.47Q31.58 14.49 32.17 14.49L32.17 14.49Q35.64 14.49 37.06 12.80Q38.48 11.11 38.48 7.75L38.48 7.75Q38.48 6.07 38.08 4.90Q37.68 3.73 36.93 3.09Q36.19 2.44 35.29 2.17Q34.39 1.89 33.24 1.89L33.24 1.89Q32.48 1.89 31.37 2.05L31.37 2.05ZM59.55 28.67L48.54 28.67L48.54 27.79L51.54 27.60L51.54 1.88L48.54 1.68L48.54 0.80L59.55 0.80L59.55 1.68L56.54 1.88L56.54 27.60L59.55 27.79L59.55 28.67ZM69.49 28.67L62.40 28.67L62.40 27.79L65.41 27.60L65.41 1.88L62.40 1.68L62.40 0.80L70.76 0.80L78.91 21.58L78.95 21.58L86.60 0.80L94.61 0.80L94.61 1.68L91.60 1.88L91.60 27.60L94.61 27.79L94.61 28.67L83.59 28.67L83.59 27.79L86.60 27.60L86.64 3.71L86.60 3.71L77.32 29.06L76.60 29.06L66.29 2.79L66.25 2.79L66.54 27.60L69.49 27.79L69.49 28.67ZM102.03 28.67L95.92 28.67L95.92 27.79L98.28 27.60L107.52 0L108.40 0L117.95 27.60L120.53 27.79L120.53 28.67L110.08 28.67L110.08 27.79L112.71 27.60L110.41 20.59L101.66 20.59L99.39 27.60L102.03 27.79L102.03 28.67ZM106.00 7.27L102.01 19.41L109.98 19.26L106.07 7.27L106.00 7.27ZM132.64 28.67L121.62 28.67L121.62 27.79L124.63 27.60L124.63 1.88L121.62 1.68L121.62 0.80L132.03 0.80Q134.20 0.80 135.95 1.17Q137.70 1.54 139.07 2.34Q140.45 3.14 141.20 4.50Q141.95 5.86 141.95 7.71L141.95 7.71Q141.95 11.05 139.71 12.92Q137.46 14.79 133.63 15.33L133.63 15.33L133.63 15.37Q135.27 15.39 136.47 15.90Q137.68 16.41 138.39 17.20Q139.10 17.99 139.75 19.24L139.75 19.24Q140.18 20.10 140.97 21.87Q141.76 23.63 142.54 25L142.54 25Q143.16 26.11 143.85 26.72Q144.53 27.32 145 27.46Q145.47 27.60 146.07 27.60L146.07 27.60L146.07 28.67L142.83 28.67Q141.35 28.67 140.49 28.49Q139.63 28.30 138.78 27.60Q137.93 26.89 137.27 25.65Q136.60 24.41 135 20.47L135 20.47Q134.77 19.88 134.33 18.96Q133.89 18.03 133.56 17.55Q133.24 17.07 132.80 16.54Q132.36 16.02 131.90 15.79Q131.45 15.57 130.94 15.57L130.94 15.57Q130.08 15.57 129.63 15.59L129.63 15.59L129.63 27.60L132.64 27.79L132.64 28.67ZM129.63 2.05L129.63 14.47Q129.84 14.49 130.43 14.49L130.43 14.49Q133.91 14.49 135.32 12.80Q136.74 11.11 136.74 7.75L136.74 7.75Q136.74 6.07 136.34 4.90Q135.94 3.73 135.20 3.09Q134.45 2.44 133.55 2.17Q132.66 1.89 131.50 1.89L131.50 1.89Q130.74 1.89 129.63 2.05L129.63 2.05ZM145.90 1.88L143.26 1.68L143.26 0.80L154.73 0.80L154.73 1.68L151.70 1.88L158.28 13.73L158.38 13.73L163.89 1.88L161.13 1.68L161.13 0.80L167.64 0.80L167.64 1.68L165.21 1.88L159.12 14.94L159.12 27.60L162.13 27.79L162.13 28.67L151.13 28.67L151.13 27.79L154.12 27.60L154.12 16.09L145.90 1.88Z" transform="translate(181.442 96.911) scale(1)"></path><path fill="#FFFFFF" fill-rule="nonzero" d="M9.20 1.07L9.20 1.07Q7.79 1.07 6.73 1.41Q5.66 1.74 4.94 2.34Q4.22 2.95 3.86 3.80Q3.50 4.65 3.50 5.66L3.50 5.66Q3.50 6.39 3.69 7.09Q3.89 7.79 4.53 8.53Q5.18 9.26 6.40 10.04Q7.62 10.82 9.69 11.72L9.69 11.72Q12.07 12.81 13.72 13.77Q15.37 14.73 16.41 15.80Q17.44 16.88 17.90 18.21Q18.36 19.55 18.36 21.41L18.36 21.41Q18.36 22.81 17.79 24.22Q17.23 25.63 16.08 26.74Q14.94 27.85 13.21 28.54Q11.48 29.24 9.16 29.24L9.16 29.24Q6.58 29.24 4.82 28.76Q3.07 28.28 2.00 27.52Q0.94 26.76 0.47 25.79Q0 24.82 0 23.85L0 23.85Q0 23.20 0.20 22.65Q0.39 22.09 0.77 21.67Q1.15 21.25 1.71 21.01Q2.27 20.76 2.97 20.76L2.97 20.76Q3.61 20.76 4.14 20.99Q4.67 21.21 5.03 21.59Q5.39 21.97 5.60 22.49Q5.80 23.01 5.80 23.61L5.80 23.61Q5.80 25 5 25.70Q4.20 26.41 2.93 26.41L2.93 26.41L2.93 26.48Q3.07 26.64 3.47 26.91Q3.87 27.19 4.58 27.46Q5.29 27.73 6.34 27.94Q7.38 28.14 8.81 28.14L8.81 28.14Q9.98 28.14 11.14 27.83Q12.30 27.52 13.21 26.93Q14.12 26.35 14.69 25.51Q15.25 24.67 15.25 23.61L15.25 23.61Q15.25 22.71 14.92 21.93Q14.59 21.15 13.67 20.34Q12.75 19.53 11.12 18.60Q9.49 17.68 6.88 16.50L6.88 16.50Q4.94 15.68 3.70 14.70Q2.46 13.71 1.75 12.61Q1.04 11.50 0.76 10.30Q0.49 9.10 0.49 7.83L0.49 7.83Q0.49 6.23 1.07 4.80Q1.66 3.38 2.77 2.31Q3.89 1.25 5.52 0.63Q7.15 0 9.24 0L9.24 0Q11.25 0 12.74 0.47Q14.24 0.94 15.21 1.71Q16.19 2.48 16.68 3.51Q17.17 4.53 17.17 5.64L17.17 5.64Q17.17 6.23 16.97 6.77Q16.78 7.30 16.41 7.71Q16.04 8.11 15.49 8.35Q14.94 8.59 14.24 8.59L14.24 8.59Q13.59 8.59 13.07 8.38Q12.54 8.16 12.16 7.79Q11.78 7.42 11.57 6.91Q11.37 6.41 11.37 5.80L11.37 5.80Q11.37 5.12 11.60 4.58Q11.84 4.04 12.24 3.68Q12.64 3.32 13.18 3.13Q13.73 2.95 14.36 2.95L14.36 2.95L14.36 2.87Q14.24 2.73 13.89 2.43Q13.54 2.13 12.91 1.83Q12.29 1.52 11.37 1.30Q10.45 1.07 9.20 1.07ZM21.76 15.12L21.76 15.12Q21.76 12.95 22.23 10.84Q22.70 8.73 23.72 6.76Q24.75 4.79 26.23 3.29Q27.71 1.80 29.90 0.90Q32.09 0 34.71 0L34.71 0Q37.75 0 40.08 1.67Q42.40 3.34 42.40 5.63L42.40 5.63Q42.40 6.78 41.67 7.60Q40.94 8.42 39.67 8.42L39.67 8.42Q38.46 8.42 37.70 7.67Q36.93 6.91 36.93 5.76L36.93 5.76Q36.93 4.63 37.66 3.86Q38.38 3.09 39.45 3.09L39.45 3.09Q39.67 3.09 39.77 3.11L39.77 3.11L39.77 3.03Q39.47 2.48 38.18 1.80Q36.89 1.11 35.08 1.11L35.08 1.11Q31.52 1.11 29.24 4.80Q26.95 8.50 26.95 14.55L26.95 14.55Q26.95 17.15 27.40 19.46Q27.85 21.78 28.74 23.67Q29.63 25.57 31.13 26.69Q32.64 27.81 34.57 27.81L34.57 27.81Q37.34 27.81 39.40 26.16Q41.46 24.51 42.60 21.93L42.60 21.93L43.52 22.36Q40.72 29.24 34.12 29.24L34.12 29.24Q31.25 29.24 29.04 28.44Q26.84 27.64 25.48 26.32Q24.12 25 23.26 23.13Q22.40 21.25 22.08 19.32Q21.76 17.38 21.76 15.12ZM56.43 28.55L45.41 28.55L45.41 27.68L48.42 27.48L48.42 1.76L45.41 1.56L45.41 0.68L56.43 0.68L56.43 1.56L53.42 1.76L53.42 13.67L63.93 13.52L63.93 1.76L60.92 1.56L60.92 0.68L71.93 0.68L71.93 1.56L68.93 1.76L68.93 27.48L71.93 27.68L71.93 28.55L60.92 28.55L60.92 27.68L63.93 27.48L63.93 14.84L53.42 14.84L53.42 27.48L56.43 27.68L56.43 28.55ZM74.96 14.71L74.96 14.71Q74.96 10.68 76.41 7.36Q77.85 4.04 80.65 2.02Q83.46 0 87.11 0L87.11 0Q92.62 0 95.99 3.89Q99.36 7.77 99.36 14.08L99.36 14.08Q99.36 16.39 98.90 18.55Q98.44 20.72 97.46 22.67Q96.48 24.61 95.09 26.06Q93.69 27.52 91.66 28.38Q89.63 29.24 87.23 29.24L87.23 29.24Q81.50 29.24 78.23 25.25Q74.96 21.27 74.96 14.71ZM80.20 14.28L80.20 14.28Q80.20 18.13 80.96 21.22Q81.72 24.32 83.31 26.24Q84.90 28.16 87.11 28.16L87.11 28.16Q90.39 28.16 92.26 24.36Q94.12 20.55 94.12 14.24L94.12 14.24Q94.12 7.68 92.29 4.38Q90.47 1.07 87.23 1.07L87.23 1.07Q86.09 1.07 85.07 1.54Q84.04 2.01 83.14 3.05Q82.25 4.08 81.60 5.60Q80.96 7.11 80.58 9.34Q80.20 11.56 80.20 14.28ZM103.11 14.71L103.11 14.71Q103.11 10.68 104.55 7.36Q106.00 4.04 108.80 2.02Q111.60 0 115.25 0L115.25 0Q120.76 0 124.13 3.89Q127.50 7.77 127.50 14.08L127.50 14.08Q127.50 16.39 127.04 18.55Q126.58 20.72 125.61 22.67Q124.63 24.61 123.23 26.06Q121.84 27.52 119.80 28.38Q117.77 29.24 115.37 29.24L115.37 29.24Q109.65 29.24 106.38 25.25Q103.11 21.27 103.11 14.71ZM108.34 14.28L108.34 14.28Q108.34 18.13 109.10 21.22Q109.86 24.32 111.46 26.24Q113.05 28.16 115.25 28.16L115.25 28.16Q118.54 28.16 120.40 24.36Q122.27 20.55 122.27 14.24L122.27 14.24Q122.27 7.68 120.44 4.38Q118.61 1.07 115.37 1.07L115.37 1.07Q114.24 1.07 113.21 1.54Q112.19 2.01 111.29 3.05Q110.39 4.08 109.75 5.60Q109.10 7.11 108.72 9.34Q108.34 11.56 108.34 14.28ZM150.96 28.55L130.51 28.55L130.51 27.68L133.52 27.48L133.52 1.76L130.51 1.56L130.51 0.68L141.52 0.68L141.52 1.56L138.52 1.76L138.52 27.29Q141.70 27.50 142.87 27.50L142.87 27.50Q143.95 27.50 144.76 27.44Q145.57 27.38 146.24 27.19Q146.91 26.99 147.37 26.78Q147.83 26.56 148.24 26.10Q148.65 25.64 148.91 25.21Q149.16 24.77 149.57 23.49Q149.98 22.21 150.29 20.59L150.29 20.59L150.96 20.59L150.96 28.55Z" transform="translate(181.442 133.973) scale(1.111)"></path></svg>